<?xml version="1.0" encoding="UTF-8" standalone="no"?>
<!-- Created with Inkscape (http://www.inkscape.org/) -->

<svg
   width="66.525787mm"
   height="77.646599mm"
   viewBox="0 0 66.525787 77.646599"
   version="1.1"
   id="svg1"
   inkscape:export-filename="Orderway2.svg"
   inkscape:export-xdpi="649.50208"
   inkscape:export-ydpi="649.50208"
   inkscape:version="1.4 (86a8ad7, 2024-10-11)"
   sodipodi:docname="dibujo-1.svg"
   xmlns:inkscape="http://www.inkscape.org/namespaces/inkscape"
   xmlns:sodipodi="http://sodipodi.sourceforge.net/DTD/sodipodi-0.dtd"
   xmlns="http://www.w3.org/2000/svg"
   xmlns:svg="http://www.w3.org/2000/svg">
  <sodipodi:namedview
     id="namedview1"
     pagecolor="#ffffff"
     bordercolor="#000000"
     borderopacity="0.25"
     inkscape:showpageshadow="2"
     inkscape:pageopacity="0.0"
     inkscape:pagecheckerboard="0"
     inkscape:deskcolor="#d1d1d1"
     inkscape:document-units="mm"
     inkscape:zoom="0.75910218"
     inkscape:cx="248.31967"
     inkscape:cy="507.83677"
     inkscape:window-width="1920"
     inkscape:window-height="1009"
     inkscape:window-x="-8"
     inkscape:window-y="-8"
     inkscape:window-maximized="1"
     inkscape:current-layer="layer2">
    <inkscape:page
       x="0"
       y="0"
       width="66.525787"
       height="77.646599"
       id="page2"
       margin="0"
       bleed="0" />
  </sodipodi:namedview>
  <defs
     id="defs1">
    <inkscape:path-effect
       effect="fillet_chamfer"
       id="path-effect2"
       is_visible="true"
       lpeversion="1"
       nodesatellites_param="F,0,0,1,0,2.1166666,0,1 @ F,0,0,1,0,2.1166666,0,1 @ F,0,0,1,0,2.1166666,0,1 @ F,0,0,1,0,2.1166666,0,1 @ F,0,0,1,0,2.1166666,0,1 @ F,0,0,1,0,2.1166666,0,1"
       radius="8"
       unit="px"
       method="auto"
       mode="F"
       chamfer_steps="1"
       flexible="false"
       use_knot_distance="true"
       apply_no_radius="true"
       apply_with_radius="true"
       only_selected="false"
       hide_knots="false" />
    <linearGradient
       id="swatch37"
       inkscape:swatch="solid">
      <stop
         style="stop-color:#ffffff;stop-opacity:1;"
         offset="0"
         id="stop37" />
    </linearGradient>
    <linearGradient
       id="swatch21"
       inkscape:swatch="solid">
      <stop
         style="stop-color:#ae00ae;stop-opacity:1;"
         offset="0"
         id="stop21" />
    </linearGradient>
  </defs>
  <g
     inkscape:groupmode="layer"
     id="layer1"
     inkscape:label="Layer 1"
     style="display:inline"
     transform="translate(-66.481935,-36.282601)">
    <path
       id="path1"
       style="fill:#0055c7;stroke-width:0.264583"
       inkscape:transform-center-x="-0.12556539"
       inkscape:transform-center-y="-5.1955113"
       transform="translate(36.429073,7.7451846)"
       d="m 65.502231,29.028592 22.787844,13.156569 a 3.666174,3.666174 60.000001 0 1 1.833087,3.175 l -10e-7,26.313135 a 3.6661741,3.6661741 120 0 1 -1.833087,3.175 L 65.50223,88.004863 a 3.6661742,3.6661742 1.624397e-6 0 1 -3.666174,0 L 39.048212,74.848294 a 3.666174,3.666174 60.000001 0 1 -1.833087,-3.175 l 10e-7,-26.313135 a 3.6661741,3.6661741 120 0 1 1.833087,-3.175 L 61.836057,29.028592 a 3.6661742,3.6661742 1.6243973e-6 0 1 3.666174,0 z"
       inkscape:path-effect="#path-effect2"
       inkscape:original-d="m 63.669144,27.970259 26.454018,15.273235 -10e-7,30.546469 -26.454018,15.273233 -26.454018,-15.273235 10e-7,-30.546469 z" />
    <g
       id="text37"
       style="font-size:15.5194px;font-family:'Britannic Bold';-inkscape-font-specification:'Britannic Bold, Normal';fill:#0055c7;stroke-width:15.8859;paint-order:stroke markers fill"
       aria-label="OrderWay"
       transform="translate(35.203319,6.2738589)">
      <path
         style="fill:#333333"
         d="m 35.961716,94.371402 q 4.516388,0 4.516388,5.34995 0,5.349948 -4.599744,5.349948 -4.599744,0 -4.599744,-5.471194 0,-5.228704 4.6831,-5.228704 z m -0.08336,0.825984 q -0.848717,0 -1.15183,0.939651 -0.295536,0.932073 -0.295536,3.584315 0,2.652238 0.295536,3.591888 0.303113,0.93208 1.15183,0.93208 0.848717,0 1.144253,-0.93208 0.303113,-0.93965 0.303113,-3.591888 0,-2.644664 -0.303113,-3.584315 -0.295536,-0.939651 -1.144253,-0.939651 z m 11.290969,4.834654 h -1.894458 q 0.09851,-0.447089 0.17429,-0.659269 0.10609,-0.310691 0.10609,-0.560759 0,-0.484981 -0.34858,-0.484981 -0.265225,0 -0.507715,0.644115 -0.242491,0.636538 -0.242491,1.348854 v 4.57701 h -2.765908 v -7.638454 l 0.538026,0.0076 q 0.954806,0 2.227882,-0.204601 v 1.25792 q 0.674427,-1.25792 1.651968,-1.25792 1.333698,0 1.333698,1.470099 0,0.386469 -0.128823,0.886606 -0.04547,0.204602 -0.143979,0.6138 z m 7.994612,-5.637904 v 10.502874 h -2.765909 v -0.65927 q -0.69716,0.83356 -1.864147,0.83356 -2.576462,0 -2.576462,-3.95563 0,-4.069293 2.728019,-4.069293 1.076052,0 1.71259,0.947229 V 94.55327 q 1.250342,0 2.765909,-0.159134 z m -3.584315,3.766182 q -0.69716,0 -0.69716,1.280654 l -0.05304,1.621658 0.03031,1.47768 q 0,1.41705 0.788095,1.41705 0.765361,0 0.765361,-1.39432 l 0.03789,-1.86415 -0.06062,-1.273074 Q 52.269213,98.160318 51.57963,98.160318 Z m 10.563498,3.940472 1.113941,0.32585 q -0.17429,2.64466 -3.122066,2.64466 -3.819228,0 -3.819228,-3.81165 0,-1.848989 1.01543,-3.031131 1.015429,-1.182142 2.599196,-1.182142 3.311513,0 3.311513,4.273893 h -4.031407 q 0,3.00083 1.523144,3.00083 1.424633,0 1.424633,-1.69744 0,-0.22733 -0.01516,-0.52287 z m -2.940199,-1.63681 h 1.651968 q 0,-2.667398 -0.80325,-2.667398 -0.727472,0 -0.818406,1.977814 z m 10.715054,-0.43194 h -1.894458 q 0.09851,-0.447089 0.17429,-0.659269 0.106089,-0.310691 0.106089,-0.560759 0,-0.484981 -0.34858,-0.484981 -0.265224,0 -0.507715,0.644115 -0.24249,0.636538 -0.24249,1.348854 v 4.57701 h -2.765909 v -7.638454 l 0.538026,0.0076 q 0.954807,0 2.227883,-0.204601 v 1.25792 q 0.674427,-1.25792 1.651967,-1.25792 1.333699,0 1.333699,1.470099 0,0.386469 -0.128824,0.886606 -0.04547,0.204602 -0.143978,0.6138 z"
         id="path52" />
      <path
         d="m 82.512338,94.55327 -2.818953,10.34374 h -1.955081 l -1.439788,-5.645484 -1.462522,5.645484 h -1.95508 L 70.213517,94.55327 h 3.015977 l 1.568611,6.27445 1.568611,-6.27445 h 1.765635 l 1.545878,6.29718 1.651967,-6.29718 z m 8.365926,10.07094 q -1.015429,0.39405 -1.977814,0.39405 -1.424632,0 -1.758057,-0.88661 -0.689583,0.9245 -1.985392,0.9245 -2.417328,0 -2.417328,-2.24304 0,-1.70502 2.212727,-2.3946 2.030859,-0.636536 2.030859,-1.53072 0,-1.174564 -1.166987,-1.174564 -1.348854,0 -1.348854,1.136675 0,0.356158 0.21218,0.939651 L 83.30801,99.524328 q -0.05304,-0.356158 -0.05304,-0.666849 0,-1.81868 3.319091,-1.81868 3.152378,0 3.152378,1.697435 v 4.637636 q 0,0.71231 0.462247,0.71231 0.143979,0 0.424359,-0.15913 z m -3.917739,-4.31937 q -0.257646,0.29554 -0.598649,0.49256 -0.856295,0.50014 -0.856295,1.68228 0,1.51557 0.591071,1.51557 0.863873,0 0.863873,-1.50041 z m 10.843878,-3.046284 -3.500958,8.623574 q -0.719894,1.77321 -1.939925,1.77321 -1.182142,0 -1.6065,-1.00785 l 0.954807,-0.68958 q 0.113667,0.87145 0.644115,0.87145 0.598649,0 0.969963,-1.00785 l 0.204601,-0.54561 -3.076599,-8.017344 h 3.03871 l 1.5383,4.493654 1.750479,-4.493654 z"
         id="path53" />
    </g>
    <path
       style="fill:none;fill-opacity:1;stroke:#ffffff;stroke-width:3.63319;stroke-linecap:round;stroke-linejoin:round;stroke-dasharray:none;stroke-opacity:1;paint-order:markers stroke fill"
       id="path38"
       inkscape:label="PRUEBA"
       sodipodi:type="arc"
       sodipodi:cx="100.93179"
       sodipodi:cy="61.148731"
       sodipodi:rx="14.748817"
       sodipodi:ry="16.672356"
       sodipodi:start="0"
       sodipodi:end="3.1415927"
       sodipodi:arc-type="slice"
       d="m 115.68061,61.148731 a 14.748817,16.672356 0 0 1 -7.37441,14.438684 14.748817,16.672356 0 0 1 -14.748816,0 14.748817,16.672356 0 0 1 -7.374408,-14.438684 h 14.748814 z" />
    <path
       style="fill:none;fill-opacity:1;stroke:#ffffff;stroke-width:3.94906;stroke-linecap:round;stroke-linejoin:miter;stroke-dasharray:none;stroke-opacity:1;paint-order:markers stroke fill"
       d="m 84.552444,51.248561 8.623732,9.104375"
       id="path49" />
    <path
       style="fill:none;fill-opacity:1;stroke:#ffffff;stroke-width:3.43809;stroke-linecap:round;stroke-linejoin:miter;stroke-dasharray:none;stroke-opacity:1;paint-order:markers stroke fill"
       d="m 93.617791,50.045488 0.534834,9.962134"
       id="path50" />
    <path
       style="fill:none;fill-opacity:1;stroke:#ffffff;stroke-width:3.63319;stroke-linecap:round;stroke-linejoin:round;stroke-dasharray:none;stroke-opacity:1;paint-order:markers stroke fill"
       d="m 94.300903,78.877497 c -0.589395,0.355002 -2.72594,2.189177 -2.72594,2.189177 l 18.271197,0.295842 -2.50493,-2.366686 z"
       id="path51" />
  </g>
</svg>
